::General::
Complete name: The Godfather Part III 1990 720p BrRip 1GB x264 [Dual-Audio] Eng-Hin NimitMak SilverRG
Director: Francis Ford Coppola
Format: MPEG-4
File size: 1007 MiB
Duration: 2h 50mn
Overall Bitrate: 827 Kbps
Language: Dual Audio [Eng-Hin]
Sub Title: Embedded + .srt (Can Be Turned Off)
Encoded date: 2012-09-27
Writing application: MeGui
Writing library: x264 core 100 r1659 57b2e56
Encoder: NimitMak
Source: BR-Rip X264 YIFY (Thanks)



::IMDB INFO::
IMDB Link:http://www.imdb.com/title/tt0099674/
IMDB Rating:7.6/10
Release Date:25 December 1990 (USA)
Genre: Crime | Drama | Mystery 
YouTube



::Video::
ID: 1
Format: AVC
Format/Info: Advanced Video Codec
Format profile: High@L5.0
Format settings, CABAC: Yes
Format settings, ReFrames: 10 frames
Codec ID: V_MPEG4/ISO/AVC
Nominal Bitrate: 706 Kbps / 4465 Kbps(Max)
Width: 1280 pixels
Height: 720 pixels
Display aspect ratio: 16:9
Frame rate: 23.976 fps
Color space: YUV
Chroma subsampling: 4:2:0
Bit depth: 8 bits
Scan type: Progressive
Writing library: x264 core 100 r1659 57b2e56



::Audio #1::
ID: 2
Format: AAC
Format/Info: Advanced Audio Codec
Format profile: HE-AAC / LC
Codec ID: 40
Duration: 2h 50mn
Bit rate mode: Variable
Bit rate: 35.0 Kbps
Maximum bit rate: 60.6 Kbps
Channel(s) : 2 channels
Channel positions: Front: L R
Sampling rate: 48.0 KHz / 24.0 KHz
Compression mode: Lossy
Stream size: 42.6 MiB (4%)
Language: English

::Audio #2::
ID: 3
Format: MPEG Audio
Format version: Version 1
Format profile: Layer 3
Mode: Joint stereo
Mode extension: MS Stereo
Codec ID: 6B
Duration: 2h 50mn
Bit rate mode: Variable
Bit rate: 81.2 Kbps
Maximum bit rate: 140 Kbps
Channel(s): 2 channels
Sampling rate : 44.1 KHz
Compression mode: Lossy
Stream size: 98.8 MiB (10%)
Language: Hindi

::Text #1::
ID: 4
Format: Timed text
Codec ID : tx3g
Duration: 2h 39mn
Bit rate mode: Variable
Bit rate: 46 bps
Stream size: 54.3 KiB (0%)
Language : English

Screens :  
http://imgbox.com/admlVcIb 
http://imgbox.com/adt6RoIA 
http://imgbox.com/acrLNHeK 
http://imgbox.com/acuqVLPR 
http://imgbox.com/abyC16Yn 
http://imgbox.com/acthRnEJ 
http://imgbox.com/acn16bU2 
http://www.shotpix.com/images/25177519023077258670.jpg